# Blender v2.79 (sub 0) OBJ File: ''
# www.blender.org
o barn_Cube.002
v -0.000000 1.334637 -1.000000
v -2.157262 -0.003000 -1.000000
v -2.157263 1.997000 1.000000
v -0.000000 1.390901 -1.219277
v 2.329843 1.371079 -1.188000
v -0.000000 1.349468 -1.206398
v 2.329843 1.422919 -1.188000
v 2.329843 2.030277 1.188000
v -0.000000 2.038393 1.182389
v -2.329844 2.026560 1.188000
v -0.000000 1.994541 1.188000
v -2.329843 1.422920 -1.219277
v -2.329843 1.381486 -1.206398
v -2.329844 2.070411 1.182389
v 2.157262 -0.003001 -1.000000
v 2.157262 1.996999 1.000000
v 2.329843 2.070411 1.182389
v 2.112110 1.400591 -1.052342
v 2.184556 0.692414 -1.052342
v 2.095126 0.692414 -1.052342
v 2.201540 1.400591 -1.052342
v 2.184556 0.692414 -0.962912
v 2.112110 1.400591 -0.962912
v 2.095126 0.692414 -0.962912
v 2.201540 -0.015762 -0.962912
v 2.112110 -0.015762 -1.052342
v 2.201540 -0.015762 -1.052342
v 2.201540 1.400591 -0.962912
v -0.000000 1.362134 -1.173093
v -2.276505 1.353286 -1.149739
v -2.276505 1.394153 -1.173092
v -2.276505 2.036181 1.168745
v -0.000000 2.004163 1.168744
v 2.276505 1.992142 1.181955
v 2.276505 2.036182 1.168744
v 2.276505 1.341278 -1.166479
v 2.276505 1.394153 -1.189832
v -0.000000 1.321267 -1.149739
v -0.000000 1.966043 1.181955
v -2.276505 1.998061 1.181955
v -2.187890 1.400592 -1.052342
v -2.098460 -0.015762 -1.052342
v -2.187891 -0.015762 -1.052342
v -2.098460 1.400592 -1.052342
v -2.098460 -0.015762 -0.962912
v -2.098460 1.400592 -0.962912
v -2.187891 -0.015762 -0.962912
v -2.187890 1.400592 -0.962912
v -2.187891 2.010596 1.144102
v -2.117366 1.370554 -1.158935
v -2.206796 1.370554 -1.158935
v -2.098460 2.010596 1.144102
v -2.117366 1.285627 -1.126983
v -2.187891 1.925669 1.176052
v -2.206796 1.285627 -1.126983
v -2.098460 1.925669 1.176052
v 2.112109 2.010596 1.144102
v 2.182635 1.370553 -1.158935
v 2.093204 1.370553 -1.158935
v 2.201540 2.010597 1.144102
v 2.182635 1.285626 -1.126983
v 2.112109 1.925668 1.176052
v 2.093204 1.285626 -1.126983
v 2.201540 1.925668 1.176052
v 1.112110 1.991750 1.144102
v 1.182634 1.351707 -1.158935
v 1.093204 1.351707 -1.158935
v 1.201540 1.991750 1.144102
v 1.182634 1.266780 -1.126983
v 1.112110 1.906822 1.176052
v 1.093204 1.266780 -1.126983
v 1.201540 1.906822 1.176052
v 0.012110 1.986405 1.144102
v 0.082635 1.346362 -1.158935
v -0.006796 1.346362 -1.158935
v 0.101540 1.986405 1.144102
v 0.082635 1.261435 -1.126983
v 0.012110 1.901478 1.176052
v -0.006796 1.261435 -1.126983
v 0.101540 1.901478 1.176052
v -1.087890 2.010596 1.144102
v -1.017365 1.370553 -1.158935
v -1.106795 1.370553 -1.158935
v -0.998460 2.010596 1.144102
v -1.017365 1.285626 -1.126983
v -1.087890 1.925669 1.176052
v -1.106796 1.285626 -1.126983
v -0.998460 1.925669 1.176052
v 2.119642 0.970399 0.947658
v 2.201540 1.956561 0.947658
v 2.209073 0.970399 0.947658
v 2.209073 0.970399 1.037088
v 2.201540 1.956561 1.037088
v 2.119642 0.970399 1.037088
v 2.112109 1.956561 1.037088
v 2.201540 -0.015762 1.037088
v 2.112110 -0.015762 0.947658
v 2.201540 -0.015762 0.947658
v -2.151636 0.949521 0.999299
v -2.098460 1.914804 0.947658
v -2.062205 0.949521 0.999299
v -2.098460 1.914804 1.037088
v -2.062205 0.949521 1.088729
v -2.151636 0.949521 1.088729
v -2.187890 1.914804 1.037088
v -2.098460 -0.015762 1.037088
v -2.187891 -0.015762 0.947658
v -2.098460 -0.015762 0.947658
v 2.112110 -0.015762 1.037088
v -2.187891 -0.015762 1.037088
v 2.112110 -0.015762 -0.962912
v 2.112109 1.956561 0.947658
v -2.187890 1.914804 0.947658
vt 0.317393 0.419768
vt 0.034059 0.413875
vt 0.317393 0.413876
vt 0.034059 0.419768
vt 0.022831 0.698443
vt 0.020946 0.418209
vt 0.317391 0.699070
vt 0.600720 0.703677
vt 0.317391 0.703677
vt 0.611947 0.698444
vt 0.600722 0.419769
vt 0.613833 0.418211
vt 0.635574 0.704964
vt 0.016643 0.414989
vt 0.635574 0.414989
vt 0.600720 0.699071
vt 0.034058 0.699070
vt 0.483374 0.931216
vt 0.621501 0.991716
vt 0.483374 0.991716
vt 0.034058 0.703677
vt 0.600722 0.413877
vt 0.787310 0.992700
vt 0.776323 0.804996
vt 0.787311 0.804996
vt 0.776323 0.992700
vt 0.752619 0.804996
vt 0.741631 0.992700
vt 0.741631 0.804996
vt 0.811014 0.992700
vt 0.811014 0.804996
vt 0.705839 0.948790
vt 0.673643 0.971129
vt 0.673643 0.948790
vt 0.673643 0.946374
vt 0.705839 0.924034
vt 0.705839 0.946374
vt 0.663944 0.607979
vt 0.668808 0.800381
vt 0.663659 0.800348
vt 0.884560 0.810798
vt 0.668046 0.810798
vt 0.889210 0.610205
vt 0.885604 0.418007
vt 0.889701 0.418050
vt 0.885541 0.409631
vt 0.668362 0.415520
vt 0.667644 0.405092
vt 0.845449 0.506240
vt 0.702105 0.594440
vt 0.703052 0.506240
vt 0.669101 0.607987
vt 0.885112 0.610162
vt 0.884658 0.802422
vt 0.703052 0.418040
vt 0.888756 0.802463
vt 0.663205 0.415535
vt 0.787310 0.992700
vt 0.776323 0.617292
vt 0.787311 0.617292
vt 0.776323 0.992700
vt 0.752620 0.617292
vt 0.752619 0.992700
vt 0.741632 0.617292
vt 0.811014 0.992700
vt 0.811014 0.617292
vt 0.705839 0.948790
vt 0.673643 0.971129
vt 0.673643 0.948790
vt 0.673643 0.946374
vt 0.705839 0.924034
vt 0.705839 0.946374
vt 0.787310 0.992700
vt 0.776323 0.617292
vt 0.787311 0.617292
vt 0.776323 0.992700
vt 0.752620 0.617292
vt 0.741631 0.992700
vt 0.741632 0.617292
vt 0.811014 0.617292
vt 0.705839 0.948790
vt 0.673643 0.971129
vt 0.673643 0.948790
vt 0.673643 0.946374
vt 0.705839 0.924034
vt 0.705839 0.946374
vt 0.787310 0.992700
vt 0.776323 0.617292
vt 0.787311 0.617292
vt 0.776323 0.992700
vt 0.752620 0.617292
vt 0.741631 0.992700
vt 0.741632 0.617292
vt 0.811014 0.617292
vt 0.705839 0.948790
vt 0.673643 0.971129
vt 0.673643 0.948790
vt 0.673643 0.946374
vt 0.705839 0.924034
vt 0.705839 0.946374
vt 0.787310 0.992700
vt 0.776323 0.617292
vt 0.787311 0.617292
vt 0.776323 0.992700
vt 0.752620 0.617292
vt 0.741631 0.992700
vt 0.741632 0.617292
vt 0.811014 0.617292
vt 0.705839 0.948790
vt 0.673643 0.971129
vt 0.673643 0.948790
vt 0.673643 0.946374
vt 0.705839 0.924034
vt 0.705839 0.946374
vt 0.787310 0.992700
vt 0.776323 0.617292
vt 0.787311 0.617292
vt 0.776323 0.992700
vt 0.752620 0.617292
vt 0.741631 0.992700
vt 0.741632 0.617292
vt 0.811014 0.617292
vt 0.705839 0.948790
vt 0.673643 0.971129
vt 0.673643 0.948790
vt 0.673643 0.946374
vt 0.705839 0.924034
vt 0.705839 0.946374
vt 0.787310 0.992700
vt 0.776323 0.617292
vt 0.787311 0.617292
vt 0.776323 0.992700
vt 0.752620 0.617292
vt 0.741631 0.992700
vt 0.741632 0.617292
vt 0.811014 0.617292
vt 0.705839 0.948790
vt 0.673643 0.971129
vt 0.673643 0.948790
vt 0.673643 0.946374
vt 0.705839 0.924034
vt 0.705839 0.946374
vt 0.787311 0.804996
vt 0.776323 0.992700
vt 0.776323 0.804996
vt 0.752619 0.804996
vt 0.752619 0.992700
vt 0.741631 0.804996
vt 0.811014 0.992700
vt 0.811014 0.804996
vt 0.705839 0.948790
vt 0.673643 0.971129
vt 0.673643 0.948790
vt 0.673643 0.946374
vt 0.705839 0.924034
vt 0.705839 0.946374
vt 0.787311 0.804996
vt 0.776323 0.992700
vt 0.776323 0.804996
vt 0.752619 0.992700
vt 0.752619 0.804996
vt 0.741631 0.804996
vt 0.811014 0.992700
vt 0.811014 0.804996
vt 0.705839 0.948790
vt 0.673643 0.971129
vt 0.673643 0.948790
vt 0.673643 0.946374
vt 0.705839 0.924034
vt 0.705839 0.946374
vt 0.787311 0.617292
vt 0.811014 0.617292
vt 0.752620 0.617292
vt 0.741632 0.617292
vt 0.776323 0.617292
vt 0.811014 0.617292
vt 0.787311 0.617292
vt 0.752620 0.617292
vt 0.741632 0.617292
vt 0.776323 0.617292
vt 0.787311 0.617292
vt 0.811014 0.617292
vt 0.741632 0.617292
vt 0.752620 0.617292
vt 0.776323 0.617292
vt 0.016643 0.704964
vt 0.621501 0.931216
vt 0.752619 0.992700
vt 0.705839 0.971129
vt 0.673643 0.924034
vt 0.845449 0.594440
vt 0.845449 0.418040
vt 0.741631 0.992700
vt 0.705839 0.971129
vt 0.673643 0.924034
vt 0.752619 0.992700
vt 0.811014 0.992700
vt 0.705839 0.971129
vt 0.673643 0.924034
vt 0.752619 0.992700
vt 0.811014 0.992700
vt 0.705839 0.971129
vt 0.673643 0.924034
vt 0.752619 0.992700
vt 0.811014 0.992700
vt 0.705839 0.971129
vt 0.673643 0.924034
vt 0.752619 0.992700
vt 0.811014 0.992700
vt 0.705839 0.971129
vt 0.673643 0.924034
vt 0.752619 0.992700
vt 0.811014 0.992700
vt 0.705839 0.971129
vt 0.673643 0.924034
vt 0.787310 0.992700
vt 0.741631 0.992700
vt 0.705839 0.971129
vt 0.673643 0.924034
vt 0.787310 0.992700
vt 0.741631 0.992700
vt 0.705839 0.971129
vt 0.673643 0.924034
vn 0.0103 -0.2928 -0.9561
vn 0.0134 -0.0035 -0.9999
vn 0.0103 -0.2968 -0.9549
vn 1.0000 -0.0000 0.0000
vn -0.0001 0.1270 0.9919
vn 0.0017 0.1269 0.9919
vn -0.0001 0.1269 0.9919
vn -1.0000 0.0000 -0.0000
vn -0.0133 -0.9655 0.2601
vn 0.0133 0.9654 -0.2603
vn -0.0114 0.9650 -0.2618
vn -0.0116 0.9650 -0.2619
vn -0.0133 0.9646 -0.2635
vn 0.0107 -0.9646 0.2636
vn 0.0110 -0.9645 0.2639
vn 0.0069 -0.9655 0.2601
vn -0.0019 0.1383 0.9904
vn -0.0041 -0.2968 -0.9549
vn 0.0000 0.0000 -1.0000
vn 0.9997 -0.0240 0.0000
vn -0.0000 0.0000 1.0000
vn -0.9997 0.0240 0.0000
vn 0.0000 -1.0000 0.0000
vn 0.0000 1.0000 0.0000
vn -0.0045 -0.4954 -0.8686
vn -0.0070 -0.4961 -0.8682
vn 0.0004 0.3272 0.9450
vn -0.0040 0.2878 0.9577
vn -0.0040 0.2873 0.9578
vn -0.0145 0.9646 -0.2635
vn -0.0146 0.9645 -0.2635
vn -0.0155 0.9643 -0.2644
vn 0.0107 -0.9637 0.2668
vn 0.0108 -0.9637 0.2668
vn 0.0110 -0.9638 0.2665
vn -0.0136 -0.9637 0.2665
vn 0.0136 0.9643 -0.2644
vn 0.0046 0.3274 0.9449
vn -0.0011 -0.4052 -0.9142
vn -0.0010 -0.4040 -0.9148
vn 0.0000 0.9635 -0.2678
vn 1.0000 -0.0028 -0.0074
vn 0.0000 -0.9635 0.2678
vn -1.0000 0.0028 0.0074
vn 0.0000 -0.3521 -0.9360
vn 0.0000 0.3521 0.9360
vn 1.0000 0.0076 0.0000
vn -1.0000 -0.0076 0.0000
vn 0.0000 -0.0534 -0.9986
vn 0.9993 0.0375 0.0000
vn 0.0000 0.0534 0.9986
vn -0.9993 -0.0375 0.0000
vn -1.0000 0.0076 0.0000
vn 1.0000 -0.0076 0.0000
vn -0.9993 0.0375 0.0000
vn 0.0000 -0.0534 0.9986
vn 0.9993 -0.0375 0.0000
vn 0.0000 0.0534 -0.9986
vn -0.9997 -0.0240 0.0000
vn 0.9997 0.0240 0.0000
vn 0.0134 0.0000 -0.9999
vn -0.0098 0.9655 -0.2603
vn 0.0148 -0.9635 0.2673
vn -0.0019 0.1385 0.9904
vn -0.0045 -0.4962 -0.8682
vn 0.0004 0.3275 0.9449
vn -0.0136 0.9648 -0.2626
vn 0.0104 -0.9636 0.2671
s 1
f 4/1/1 5/2/2 6/3/3
f 7/4/4 8/5/4 5/6/4
f 9/7/5 10/8/6 11/9/7
f 10/10/8 12/11/8 13/12/8
f 11/13/9 13/14/9 6/15/9
f 9/7/10 12/11/10 14/16/10
f 7/4/11 9/7/12 17/17/13
f 5/18/14 11/19/15 6/20/16
f 8/21/17 9/7/5 11/9/7
f 13/22/18 4/1/18 6/3/18
f 18/23/19 19/24/19 20/25/19
f 21/26/20 22/27/20 19/24/20
f 22/27/21 23/28/21 24/29/21
f 23/30/22 20/25/22 24/31/22
f 25/32/23 26/33/23 27/34/23
f 21/35/24 23/36/24 28/37/24
f 29/38/25 30/39/26 31/40/26
f 30/39/8 32/41/8 31/42/8
f 33/43/27 34/44/28 35/45/29
f 35/46/4 36/47/4 37/48/4
f 33/49/30 37/50/31 29/51/32
f 38/52/33 34/44/34 39/53/35
f 30/39/36 39/53/36 40/54/36
f 31/55/37 33/49/37 29/51/37
f 40/54/38 33/43/27 32/56/38
f 36/47/39 29/38/25 37/57/40
f 41/58/19 42/59/19 43/60/19
f 44/61/4 45/62/4 42/59/4
f 46/63/21 47/64/21 45/62/21
f 48/65/8 43/60/8 47/66/8
f 45/67/23 43/68/23 42/69/23
f 44/70/24 48/71/24 46/72/24
f 49/73/41 50/74/41 51/75/41
f 52/76/42 53/77/42 50/74/42
f 53/77/43 54/78/43 55/79/43
f 55/80/44 49/73/44 51/75/44
f 53/81/45 51/82/45 50/83/45
f 52/84/46 54/85/46 56/86/46
f 57/87/41 58/88/41 59/89/41
f 60/90/42 61/91/42 58/88/42
f 61/91/43 62/92/43 63/93/43
f 63/94/44 57/87/44 59/89/44
f 61/95/45 59/96/45 58/97/45
f 60/98/46 62/99/46 64/100/46
f 65/101/41 66/102/41 67/103/41
f 68/104/42 69/105/42 66/102/42
f 69/105/43 70/106/43 71/107/43
f 71/108/44 65/101/44 67/103/44
f 69/109/45 67/110/45 66/111/45
f 68/112/46 70/113/46 72/114/46
f 73/115/41 74/116/41 75/117/41
f 76/118/42 77/119/42 74/116/42
f 77/119/43 78/120/43 79/121/43
f 79/122/44 73/115/44 75/117/44
f 77/123/45 75/124/45 74/125/45
f 76/126/46 78/127/46 80/128/46
f 81/129/41 82/130/41 83/131/41
f 84/132/42 85/133/42 82/130/42
f 85/133/43 86/134/43 87/135/43
f 87/136/44 81/129/44 83/131/44
f 85/137/45 83/138/45 82/139/45
f 84/140/46 86/141/46 88/142/46
f 89/143/19 90/144/19 91/145/19
f 90/144/47 92/146/4 91/145/4
f 93/147/21 94/148/21 92/146/21
f 95/149/48 89/143/8 94/150/8
f 96/151/23 97/152/23 98/153/23
f 90/154/24 95/155/24 93/156/24
f 99/157/49 100/158/49 101/159/49
f 101/159/50 102/160/50 103/161/50
f 102/160/51 104/162/51 103/161/51
f 105/163/52 99/157/52 104/164/52
f 106/165/23 107/166/23 108/167/23
f 100/168/24 105/169/24 102/170/24
f 94/150/8 97/171/53 109/172/53
f 96/173/21 94/148/21 109/174/21
f 91/145/4 96/173/54 98/175/54
f 89/143/19 98/175/19 97/171/19
f 110/176/55 99/157/55 107/177/55
f 106/178/56 104/162/56 110/179/56
f 101/159/57 106/178/57 108/180/57
f 99/157/58 108/180/58 107/177/58
f 24/31/59 26/181/59 111/182/59
f 22/27/21 111/183/21 25/184/21
f 19/24/60 25/184/60 27/185/60
f 26/181/19 19/24/19 27/185/19
f 4/1/1 7/4/61 5/2/2
f 7/4/4 17/17/4 8/5/4
f 9/7/5 14/16/6 10/8/6
f 10/10/8 14/16/8 12/11/8
f 11/13/9 10/186/9 13/14/9
f 9/7/10 4/1/10 12/11/10
f 7/4/11 4/1/62 9/7/12
f 5/18/14 8/187/63 11/19/15
f 8/21/17 17/17/64 9/7/5
f 13/22/18 12/11/18 4/1/18
f 18/23/19 21/26/19 19/24/19
f 21/26/20 28/188/20 22/27/20
f 22/27/21 28/188/21 23/28/21
f 23/30/22 18/23/22 20/25/22
f 25/32/23 111/189/23 26/33/23
f 21/35/24 18/190/24 23/36/24
f 29/38/25 38/52/65 30/39/26
f 30/39/8 40/54/8 32/41/8
f 33/43/27 39/53/66 34/44/28
f 35/46/4 34/44/4 36/47/4
f 33/49/30 35/191/67 37/50/31
f 38/52/33 36/47/68 34/44/34
f 30/39/36 38/52/36 39/53/36
f 31/55/37 32/192/37 33/49/37
f 40/54/38 39/53/66 33/43/27
f 36/47/39 38/52/65 29/38/25
f 41/58/19 44/61/19 42/59/19
f 44/61/4 46/63/4 45/62/4
f 46/63/21 48/193/21 47/64/21
f 48/65/8 41/58/8 43/60/8
f 45/67/23 47/194/23 43/68/23
f 44/70/24 41/195/24 48/71/24
f 49/73/41 52/76/41 50/74/41
f 52/76/42 56/196/42 53/77/42
f 53/77/43 56/196/43 54/78/43
f 55/80/44 54/197/44 49/73/44
f 53/81/45 55/198/45 51/82/45
f 52/84/46 49/199/46 54/85/46
f 57/87/41 60/90/41 58/88/41
f 60/90/42 64/200/42 61/91/42
f 61/91/43 64/200/43 62/92/43
f 63/94/44 62/201/44 57/87/44
f 61/95/45 63/202/45 59/96/45
f 60/98/46 57/203/46 62/99/46
f 65/101/41 68/104/41 66/102/41
f 68/104/42 72/204/42 69/105/42
f 69/105/43 72/204/43 70/106/43
f 71/108/44 70/205/44 65/101/44
f 69/109/45 71/206/45 67/110/45
f 68/112/46 65/207/46 70/113/46
f 73/115/41 76/118/41 74/116/41
f 76/118/42 80/208/42 77/119/42
f 77/119/43 80/208/43 78/120/43
f 79/122/44 78/209/44 73/115/44
f 77/123/45 79/210/45 75/124/45
f 76/126/46 73/211/46 78/127/46
f 81/129/41 84/132/41 82/130/41
f 84/132/42 88/212/42 85/133/42
f 85/133/43 88/212/43 86/134/43
f 87/136/44 86/213/44 81/129/44
f 85/137/45 87/214/45 83/138/45
f 84/140/46 81/215/46 86/141/46
f 89/143/19 112/216/19 90/144/19
f 90/144/47 93/147/47 92/146/4
f 93/147/21 95/217/21 94/148/21
f 95/149/48 112/216/48 89/143/8
f 96/151/23 109/218/23 97/152/23
f 90/154/24 112/219/24 95/155/24
f 99/157/49 113/220/49 100/158/49
f 101/159/50 100/158/50 102/160/50
f 102/160/51 105/221/51 104/162/51
f 105/163/52 113/220/52 99/157/52
f 106/165/23 110/222/23 107/166/23
f 100/168/24 113/223/24 105/169/24
f 94/150/8 89/143/8 97/171/53
f 96/173/21 92/146/21 94/148/21
f 91/145/4 92/146/4 96/173/54
f 89/143/19 91/145/19 98/175/19
f 110/176/55 104/164/55 99/157/55
f 106/178/56 103/161/56 104/162/56
f 101/159/57 103/161/57 106/178/57
f 99/157/58 101/159/58 108/180/58
f 24/31/59 20/25/59 26/181/59
f 22/27/21 24/29/21 111/183/21
f 19/24/60 22/27/60 25/184/60
f 26/181/19 20/25/19 19/24/19
