# Blender v2.79 (sub 0) OBJ File: ''
# www.blender.org
mtllib weaver.mtl
o EngineersShack_polySurface8.001
v 0.570061 -0.004877 1.233581
v 0.459465 -0.001152 1.232893
v 0.460528 0.004876 1.094816
v 0.571123 0.001151 1.095504
v 0.609988 1.190244 1.286061
v 0.611051 1.196272 1.147984
v 0.500456 1.199997 1.147296
v 0.499393 1.193969 1.285373
vt 1.000000 0.000000
vt 1.000000 1.000000
vt 0.000000 1.000000
vt 0.000000 0.000000
vt 0.000000 0.000000
vt 1.000000 0.000000
vt 1.000000 1.000000
vt 0.000000 1.000000
vt 0.000000 0.000000
vt 1.000000 0.000000
vt 1.000000 1.000000
vt 0.000000 1.000000
vt 1.000000 0.000000
vt 0.000000 1.000000
vt 0.000000 0.000000
vt 1.000000 0.000000
vt 1.000000 1.000000
vt 0.000000 1.000000
vt 0.000000 0.000000
vt 1.000000 1.000000
vn -0.0334 -0.9985 -0.0438
vn 0.0334 0.9985 0.0438
vn 0.9994 -0.0337 0.0062
vn 0.0077 0.0436 -0.9990
vn -0.9994 0.0337 -0.0062
vn -0.0077 -0.0436 0.9990
usemtl None.002
FE3D_PART walls
s 1
f 1/1/1 2/2/1 3/3/1
f 3/3/1 4/4/1 1/1/1
f 5/5/2 6/6/2 7/7/2
f 7/7/2 8/8/2 5/5/2
f 1/9/3 4/10/3 6/11/3
f 6/11/3 5/12/3 1/9/3
f 4/4/4 3/13/4 7/7/4
f 7/7/4 6/14/4 4/4/4
f 3/15/5 2/16/5 8/17/5
f 8/17/5 7/18/5 3/15/5
f 2/19/6 1/1/6 5/20/6
f 5/20/6 8/8/6 2/19/6
o EngineersShack_polySurface5.001
v -0.915040 0.003534 1.287741
v -1.054122 -0.003913 1.286655
v -1.052783 -0.003535 1.112689
v -0.913701 0.003912 1.113776
v -0.996617 1.489389 1.290347
v -0.995278 1.489768 1.116381
v -1.134360 1.482321 1.115295
v -1.135699 1.481942 1.289260
vt 1.000000 0.000000
vt 1.000000 1.000000
vt 0.000000 1.000000
vt 0.000000 0.000000
vt 0.000000 0.000000
vt 1.000000 0.000000
vt 1.000000 1.000000
vt 0.000000 1.000000
vt 0.000000 0.000000
vt 1.000000 0.000000
vt 1.000000 1.000000
vt 0.000000 1.000000
vt 1.000000 0.000000
vt 0.000000 1.000000
vt 0.000000 0.000000
vt 1.000000 0.000000
vt 1.000000 1.000000
vt 0.000000 1.000000
vt 0.000000 0.000000
vt 1.000000 1.000000
vn 0.0535 -0.9986 -0.0018
vn -0.0535 0.9986 0.0018
vn 0.9985 0.0548 0.0078
vn 0.0077 0.0022 -1.0000
vn -0.9985 -0.0548 -0.0078
vn -0.0077 -0.0022 1.0000
usemtl None.002
FE3D_PART walls
s 1
f 9/21/7 10/22/7 11/23/7
f 11/23/7 12/24/7 9/21/7
f 13/25/8 14/26/8 15/27/8
f 15/27/8 16/28/8 13/25/8
f 9/29/9 12/30/9 14/31/9
f 14/31/9 13/32/9 9/29/9
f 12/24/10 11/33/10 15/27/10
f 15/27/10 14/34/10 12/24/10
f 11/35/11 10/36/11 16/37/11
f 16/37/11 15/38/11 11/35/11
f 10/39/12 9/21/12 13/40/12
f 13/40/12 16/28/12 10/39/12
o EngineersShack_polySurface6.001
v -0.025074 1.134976 1.276702
v -0.020091 1.245523 1.276740
v -0.019027 1.245523 1.138532
v -0.024010 1.134976 1.138493
v 0.580648 1.103741 1.281363
v 0.581712 1.103741 1.143154
v 0.586695 1.214288 1.143192
v 0.585632 1.214288 1.281401
vt 1.000000 0.000000
vt 1.000000 1.000000
vt 0.000000 1.000000
vt 0.000000 0.000000
vt 0.000000 0.000000
vt 1.000000 0.000000
vt 1.000000 1.000000
vt 0.000000 1.000000
vt 0.000000 0.000000
vt 1.000000 0.000000
vt 1.000000 1.000000
vt 0.000000 1.000000
vt 1.000000 0.000000
vt 0.000000 1.000000
vt 0.000000 0.000000
vt 1.000000 0.000000
vt 1.000000 1.000000
vt 0.000000 1.000000
vt 0.000000 0.000000
vt 1.000000 1.000000
vn -0.9990 0.0450 -0.0077
vn 0.9990 -0.0450 0.0077
vn -0.0515 -0.9987 -0.0004
vn 0.0077 0.0000 -1.0000
vn 0.0515 0.9987 0.0004
vn -0.0077 0.0000 1.0000
usemtl None.002
FE3D_PART walls
s 1
f 17/41/13 18/42/13 19/43/13
f 19/43/13 20/44/13 17/41/13
f 21/45/14 22/46/14 23/47/14
f 23/47/14 24/48/14 21/45/14
f 17/49/15 20/50/15 22/51/15
f 22/51/15 21/52/15 17/49/15
f 20/44/16 19/53/16 23/47/16
f 23/47/16 22/54/16 20/44/16
f 19/55/17 18/56/17 24/57/17
f 24/57/17 23/58/17 19/55/17
f 18/59/18 17/41/18 21/60/18
f 21/60/18 24/48/18 18/59/18
o EngineersShack_polySurface11.001
v 0.006987 0.000000 -1.109247
v 1.024979 0.000000 -1.101414
v 0.569192 -0.000000 1.135303
v 1.007743 -0.000000 1.138678
v 1.134236 1.462298 -1.219781
v 0.007905 2.285097 -1.228448
v -0.011166 2.285097 1.250046
v 1.115165 1.462298 1.258712
v -1.011004 0.000000 -1.117080
v -1.028240 -0.000000 1.123012
v -1.137497 1.462298 1.241379
v -1.118427 1.462298 -1.237114
v -0.566065 -0.000000 1.126568
v -0.593681 1.126635 1.199083
v -0.010716 1.163370 1.191532
v 0.589356 1.138909 1.212773
vt 2.487961 -1.487961
vt 2.487962 0.500000
vt -1.487962 0.500001
vt -1.487962 -1.487960
vt -1.296744 -1.487962
vt 2.296743 -1.487962
vt 2.487961 1.056344
vt -1.487962 1.056344
vt -1.296743 -1.487962
vt 0.500000 -1.487962
vt 0.500000 2.487962
vt -1.487961 1.056344
vt -1.296743 -1.487962
vt 2.296743 -1.487962
vt 2.487961 1.056344
vt -1.487962 1.056344
vt 2.487962 2.487961
vt -1.487961 2.487962
vt 2.296743 -1.487962
vt 2.487961 1.056344
vt -1.296744 -1.487962
vt -0.481008 -1.487962
vt -0.528764 0.472312
vt -1.487962 1.056344
vt 0.499999 2.487962
vt 0.499999 0.536229
vt 2.487960 1.056344
vt 1.559344 0.493667
vt 2.296742 -1.487962
vt 1.522705 -1.487962
vn 0.5899 0.8075 0.0045
vn 0.0000 1.0000 0.0000
vn 0.9972 -0.0739 0.0077
vn -0.0092 -0.0596 -0.9982
vn 0.0077 -0.0521 -0.9986
vn 0.0077 -0.0660 -0.9978
vn -0.0486 -0.0770 -0.9958
vn -0.9972 -0.0739 -0.0077
vn -0.5899 0.8075 -0.0045
vn 0.0245 -0.0596 -0.9979
vn 0.0639 -0.0770 -0.9950
vn 0.0022 -0.0682 0.9977
vn -0.0077 -0.0644 0.9979
vn 0.0261 -0.0666 0.9974
vn 0.0343 -0.0700 0.9970
vn -0.0091 -0.0549 0.9984
vn -0.0139 -0.0546 0.9984
vn -0.0415 -0.0677 0.9968
vn -0.0361 -0.0781 0.9963
vn -0.0156 -0.0706 0.9974
vn -0.0077 -0.0677 0.9977
usemtl None.002
FE3D_PART walls
s 1
f 29/61/19 30/62/20 31/63/20
f 31/63/20 32/64/19 29/61/19
f 28/65/21 26/66/21 29/67/21
f 29/67/21 32/68/21 28/65/21
f 26/69/22 25/70/23 30/71/24
f 30/71/24 29/72/25 26/69/22
f 33/73/26 34/74/26 35/75/26
f 35/75/26 36/76/26 33/73/26
f 36/77/27 35/78/27 31/63/20
f 31/63/20 30/62/20 36/77/27
f 33/79/28 36/80/29 30/71/24
f 30/71/24 25/70/23 33/79/28
f 34/81/30 37/82/31 38/83/32
f 35/84/33 34/81/30 38/83/32
f 31/85/34 35/84/33 38/83/32
f 39/86/35 31/85/34 38/83/32
f 32/87/36 31/85/34 39/86/35
f 32/87/36 39/86/35 40/88/37
f 28/89/38 32/87/36 40/88/37
f 27/90/39 28/89/38 40/88/37
o EngineersShack_polySurface2.001
v -1.083199 1.364853 1.286288
v -1.084910 1.532622 1.286578
v -1.083569 1.533078 1.112613
v -1.081858 1.365309 1.112323
v 1.034978 1.358370 1.302550
v 1.036319 1.358825 1.128585
v 1.034608 1.526595 1.128875
v 1.033267 1.526139 1.302840
vt 1.000000 0.000000
vt 1.000000 1.000000
vt 0.000000 1.000000
vt 0.000000 0.000000
vt 0.000000 0.000000
vt 1.000000 0.000000
vt 1.000000 1.000000
vt 0.000000 1.000000
vt 0.000000 0.000000
vt 1.000000 0.000000
vt 1.000000 1.000000
vt 0.000000 1.000000
vt 1.000000 0.000000
vt 0.000000 1.000000
vt 0.000000 0.000000
vt 1.000000 0.000000
vt 1.000000 1.000000
vt 0.000000 1.000000
vt 0.000000 0.000000
vt 1.000000 1.000000
vn -0.9999 -0.0102 -0.0077
vn 0.9999 0.0102 0.0077
vn -0.0030 -1.0000 -0.0026
vn 0.0077 0.0018 -1.0000
vn 0.0030 1.0000 0.0026
vn -0.0077 -0.0018 1.0000
usemtl None.002
FE3D_PART walls
s 1
f 41/91/40 42/92/40 43/93/40
f 43/93/40 44/94/40 41/91/40
f 45/95/41 46/96/41 47/97/41
f 47/97/41 48/98/41 45/95/41
f 41/99/42 44/100/42 46/101/42
f 46/101/42 45/102/42 41/99/42
f 44/94/43 43/103/43 47/97/43
f 47/97/43 46/104/43 44/94/43
f 43/105/44 42/106/44 48/107/44
f 48/107/44 47/108/44 43/105/44
f 42/109/45 41/91/45 45/110/45
f 45/110/45 48/98/45 42/109/45
o EngineersShack_polySurface3.001
v 1.148475 -0.001045 1.303609
v 1.009205 0.000666 1.302541
v 1.010543 0.001044 1.128575
v 1.149814 -0.000667 1.129643
v 1.164736 1.486958 1.306972
v 1.166074 1.487336 1.133006
v 1.026803 1.489047 1.131938
v 1.025464 1.488669 1.305904
vt 1.000000 0.000000
vt 1.000000 1.000000
vt 0.000000 1.000000
vt 0.000000 0.000000
vt 0.000000 0.000000
vt 1.000000 0.000000
vt 1.000000 1.000000
vt 0.000000 1.000000
vt 0.000000 0.000000
vt 1.000000 0.000000
vt 1.000000 1.000000
vt 0.000000 1.000000
vt 1.000000 0.000000
vt 0.000000 1.000000
vt 0.000000 0.000000
vt 1.000000 0.000000
vt 1.000000 1.000000
vt 0.000000 1.000000
vt 0.000000 0.000000
vt 1.000000 1.000000
vn -0.0123 -0.9999 -0.0023
vn 0.0123 0.9999 0.0023
vn 0.9999 -0.0109 0.0077
vn 0.0077 0.0022 -1.0000
vn -0.9999 0.0109 -0.0077
vn -0.0077 -0.0022 1.0000
usemtl None.002
FE3D_PART walls
s 1
f 49/111/46 50/112/46 51/113/46
f 51/113/46 52/114/46 49/111/46
f 53/115/47 54/116/47 55/117/47
f 55/117/47 56/118/47 53/115/47
f 49/119/48 52/120/48 54/121/48
f 54/121/48 53/122/48 49/119/48
f 52/114/49 51/123/49 55/117/49
f 55/117/49 54/124/49 52/114/49
f 51/125/50 50/126/50 56/127/50
f 56/127/50 55/128/50 51/125/50
f 50/129/51 49/111/51 53/130/51
f 53/130/51 56/118/51 50/129/51
o EngineersShack_polySurface283.001
v 0.010289 2.235142 1.320788
v -0.037632 2.216859 -0.045939
v 1.296813 1.260970 -0.035671
v 1.344734 1.279253 1.331055
v 1.349416 1.334409 -0.035266
v 0.014970 2.290298 -0.045534
v 0.062891 2.308581 1.321192
v 1.397337 1.352692 1.331460
v 1.365761 1.279254 -1.401498
v 0.031315 2.235143 -1.411766
v 0.083917 2.308582 -1.411361
v 1.418362 1.352693 -1.401094
vt 1.180319 0.495062
vt 0.500000 0.523515
vt 0.500000 -0.126254
vt 1.180320 -0.154706
vt 0.500000 -0.151867
vt 0.500000 0.497902
vt -0.180319 0.469449
vt -0.180320 -0.180319
vt 1.180320 -0.180319
vt -0.154706 -0.096868
vt 0.495062 1.062820
vt 0.469449 1.151916
vt -0.180320 -0.007772
vt 1.180319 0.469449
vt 1.180319 0.495062
vt 0.504938 1.062820
vt 1.154706 -0.096868
vt 1.180319 -0.007772
vt 0.530551 1.151916
vt -0.180319 0.495062
vt -0.180319 -0.154706
vt 1.180319 -0.180320
vt -0.180319 -0.180320
vt -0.180319 0.495062
vn -0.5822 -0.8124 0.0313
vn -0.5823 -0.8130 -0.0045
vn 0.5823 0.8130 0.0045
vn 0.5822 0.8124 -0.0313
vn 0.8129 -0.5823 0.0063
vn 0.8128 -0.5821 -0.0207
vn 0.0077 -0.0000 -1.0000
vn -0.8129 0.5823 -0.0063
vn -0.8124 0.5821 -0.0332
vn -0.0077 0.0000 1.0000
vn -0.5817 -0.8124 -0.0402
vn 0.5817 0.8124 0.0402
vn 0.8124 -0.5821 0.0332
vn -0.8129 0.5821 0.0207
usemtl None.002
FE3D_PART roof
s 1
f 57/131/52 58/132/53 59/133/53
f 59/133/53 60/134/52 57/131/52
f 61/135/54 62/136/54 63/137/55
f 63/137/55 64/138/55 61/135/54
f 59/133/56 61/135/56 64/139/57
f 64/139/57 60/134/57 59/133/56
f 65/140/58 66/141/58 67/142/58
f 67/142/58 68/143/58 65/140/58
f 58/132/59 62/136/59 67/144/60
f 67/144/60 66/145/60 58/132/59
f 57/146/61 60/147/61 64/148/61
f 64/148/61 63/149/61 57/146/61
f 66/150/62 65/151/62 59/133/53
f 59/133/53 58/132/53 66/150/62
f 68/152/63 67/144/63 62/136/54
f 62/136/54 61/135/54 68/152/63
f 65/151/64 68/153/64 61/135/56
f 61/135/56 59/133/56 65/151/64
f 57/154/65 63/137/65 62/136/59
f 62/136/59 58/132/59 57/154/65
o EngineersShack_polySurface7.001
v -0.608718 1.097798 1.272211
v -0.615286 1.208262 1.272160
v -0.614223 1.208262 1.133952
v -0.607654 1.097798 1.134002
v -0.003040 1.129882 1.276871
v -0.001977 1.129882 1.138663
v -0.008545 1.240347 1.138612
v -0.009609 1.240347 1.276821
vt 1.000000 0.000000
vt 1.000000 1.000000
vt 0.000000 1.000000
vt 0.000000 0.000000
vt 0.000000 0.000000
vt 1.000000 0.000000
vt 1.000000 1.000000
vt 0.000000 1.000000
vt 0.000000 0.000000
vt 1.000000 0.000000
vt 1.000000 1.000000
vt 0.000000 1.000000
vt 1.000000 0.000000
vt 0.000000 1.000000
vt 0.000000 0.000000
vt 1.000000 0.000000
vt 1.000000 1.000000
vt 0.000000 1.000000
vt 0.000000 0.000000
vt 1.000000 1.000000
vn -0.9982 -0.0594 -0.0077
vn 0.9982 0.0594 0.0077
vn 0.0529 -0.9986 0.0004
vn 0.0077 0.0000 -1.0000
vn -0.0529 0.9986 -0.0004
vn -0.0077 0.0000 1.0000
usemtl None.002
FE3D_PART walls
s 1
f 69/155/66 70/156/66 71/157/66
f 71/157/66 72/158/66 69/155/66
f 73/159/67 74/160/67 75/161/67
f 75/161/67 76/162/67 73/159/67
f 69/163/68 72/164/68 74/165/68
f 74/165/68 73/166/68 69/163/68
f 72/158/69 71/167/69 75/161/69
f 75/161/69 74/168/69 72/158/69
f 71/169/70 70/170/70 76/171/70
f 76/171/70 75/172/70 71/169/70
f 70/173/71 69/155/71 73/174/71
f 73/174/71 76/162/71 70/173/71
o polySurface1_EngineersShack.001
v -0.129115 2.057531 1.646957
v -0.116604 1.982526 0.020975
v 0.088566 1.982526 0.022553
v 0.076054 2.057531 1.648536
v 0.088566 2.321283 0.022553
v -0.116604 2.321283 0.020975
v -0.129115 2.396287 1.646957
v 0.076054 2.396287 1.648536
v 0.101077 2.057532 -1.603429
v -0.104093 2.057532 -1.605008
v -0.104093 2.396288 -1.605008
v 0.101077 2.396288 -1.603429
vt 0.999500 0.999500
vt 0.500000 0.999499
vt 0.500000 0.000501
vt 0.999500 0.000502
vt 0.500000 0.000501
vt 0.500000 0.999499
vt 0.000500 0.999500
vt 0.000500 0.000502
vt 0.500000 0.818405
vt 0.000500 0.999500
vt 0.000500 0.181595
vt 0.000500 0.181595
vt 0.999498 0.181595
vt 0.999498 0.999500
vt 0.000500 0.999500
vt 0.500000 0.000500
vt 0.500000 0.818405
vt 0.000500 0.999500
vt 0.000500 0.181595
vt 0.000500 0.181595
vt 0.999498 0.181595
vt 0.999498 0.999500
vt 0.000500 0.999498
vt 0.000500 0.000500
vt 0.999500 0.000500
vt 0.999500 0.181595
vt 0.999500 0.999500
vt 0.999500 0.181595
vt 0.999500 0.999500
vn -0.0004 -0.9989 0.0461
vn -0.0000 -1.0000 -0.0000
vn 0.0000 1.0000 0.0000
vn 0.0004 0.9989 -0.0461
vn 1.0000 0.0000 0.0077
vn 0.0077 0.0000 -1.0000
vn -1.0000 0.0000 -0.0077
vn -0.0077 0.0000 1.0000
vn 0.0004 -0.9989 -0.0461
vn -0.0004 0.9989 0.0461
usemtl None.002
FE3D_PART walls
s 1
f 77/175/72 78/176/73 79/177/73
f 79/177/73 80/178/72 77/175/72
f 81/179/74 82/180/74 83/181/75
f 83/181/75 84/182/75 81/179/74
f 79/177/76 81/183/76 84/184/76
f 84/184/76 80/185/76 79/177/76
f 85/186/77 86/187/77 87/188/77
f 87/188/77 88/189/77 85/186/77
f 78/190/78 82/191/78 87/192/78
f 87/192/78 86/193/78 78/190/78
f 77/194/79 80/195/79 84/196/79
f 84/196/79 83/181/79 77/194/79
f 86/197/80 85/198/80 79/177/73
f 79/177/73 78/176/73 86/197/80
f 88/199/81 87/188/81 82/180/74
f 82/180/74 81/179/74 88/199/81
f 85/200/76 88/201/76 81/183/76
f 81/183/76 79/177/76 85/200/76
f 77/202/78 83/203/78 82/191/78
f 82/191/78 78/190/78 77/202/78
o EngineersShack_polySurface284.001
v -1.342662 1.271696 1.310377
v -1.332150 1.210467 -0.055900
v -0.021424 2.198631 -0.045814
v -0.031936 2.259860 1.320463
v -0.075802 2.270764 -0.046232
v -1.386528 1.282601 -0.056318
v -1.397041 1.343830 1.309959
v -0.086314 2.331993 1.320044
v -0.010911 2.259860 -1.412091
v -1.321637 1.271697 -1.422176
v -1.376015 1.343830 -1.422595
v -0.065289 2.331994 -1.412509
vt 1.180319 1.153841
vt 0.500000 1.153841
vt 0.500000 0.515622
vt 1.180319 0.515622
vt 0.500000 0.542100
vt 0.500000 1.180319
vt -0.180319 1.180320
vt -0.180319 0.542100
vt -0.180319 0.515622
vt 0.515622 1.092807
vt 1.153841 -0.106036
vt 1.180319 -0.018524
vt 0.542100 1.180320
vt -0.180320 1.180319
vt -0.180320 1.153841
vt -0.153841 -0.106036
vt 0.484378 1.092807
vt 0.457900 1.180320
vt -0.180320 -0.018524
vt -0.180319 0.515622
vt 1.180319 0.542100
vt 1.180320 1.180319
vt 1.180319 0.515622
vt 1.180319 1.180320
vn 0.6013 -0.7980 0.0404
vn 0.6020 -0.7985 0.0046
vn -0.6020 0.7985 -0.0046
vn -0.6013 0.7980 -0.0404
vn 0.7985 0.6020 0.0061
vn 0.7984 0.6018 -0.0208
vn 0.0077 0.0000 -1.0000
vn -0.7985 -0.6020 -0.0061
vn -0.7980 -0.6018 -0.0331
vn -0.0077 -0.0000 1.0000
vn 0.6019 -0.7980 -0.0311
vn -0.6019 0.7980 0.0311
vn 0.7980 0.6018 0.0331
vn -0.7984 -0.6018 0.0208
usemtl None.002
FE3D_PART roof
s 1
f 89/204/82 90/205/83 91/206/83
f 91/206/83 92/207/82 89/204/82
f 93/208/84 94/209/84 95/210/85
f 95/210/85 96/211/85 93/208/84
f 91/206/86 93/208/86 96/211/87
f 96/211/87 92/212/87 91/206/86
f 97/213/88 98/214/88 99/215/88
f 99/215/88 100/216/88 97/213/88
f 90/205/89 94/209/89 99/217/90
f 99/217/90 98/218/90 90/205/89
f 89/219/91 92/220/91 96/221/91
f 96/221/91 95/222/91 89/219/91
f 98/218/92 97/223/92 91/206/83
f 91/206/83 90/205/83 98/218/92
f 100/224/93 99/225/93 94/209/84
f 94/209/84 93/208/84 100/224/93
f 97/226/94 100/224/94 93/208/86
f 93/208/86 91/206/86 97/226/94
f 89/204/95 95/227/95 94/209/89
f 94/209/89 90/205/89 89/204/95
o EngineersShack_polySurface9.001
v 1.166854 0.002376 -1.084989
v 1.027584 0.004086 -1.086117
v 1.028921 -0.001589 -1.259990
v 1.168192 -0.003299 -1.258862
v 1.183513 1.489591 -1.133402
v 1.184851 1.483916 -1.307275
v 1.045581 1.485626 -1.308402
v 1.044242 1.491301 -1.134529
vt 1.000000 0.000000
vt 1.000000 1.000000
vt 0.000000 1.000000
vt 0.000000 0.000000
vt 0.000000 0.000000
vt 1.000000 0.000000
vt 1.000000 1.000000
vt 0.000000 1.000000
vt 0.000000 0.000000
vt 1.000000 0.000000
vt 1.000000 1.000000
vt 0.000000 1.000000
vt 1.000000 0.000000
vt 0.000000 1.000000
vt 0.000000 0.000000
vt 1.000000 0.000000
vt 1.000000 1.000000
vt 0.000000 1.000000
vt 0.000000 0.000000
vt 1.000000 1.000000
vn -0.0125 -0.9994 0.0325
vn 0.0125 0.9994 -0.0325
vn 0.9999 -0.0109 0.0081
vn 0.0077 -0.0326 -0.9994
vn -0.9999 0.0109 -0.0080
vn -0.9999 0.0109 -0.0081
vn -0.0077 0.0326 0.9994
usemtl None.002
FE3D_PART walls
s 1
f 101/228/96 102/229/96 103/230/96
f 103/230/96 104/231/96 101/228/96
f 105/232/97 106/233/97 107/234/97
f 107/234/97 108/235/97 105/232/97
f 101/236/98 104/237/98 106/238/98
f 106/238/98 105/239/98 101/236/98
f 104/231/99 103/240/99 107/234/99
f 107/234/99 106/241/99 104/231/99
f 103/242/100 102/243/100 108/244/101
f 108/244/101 107/245/101 103/242/100
f 102/246/102 101/228/102 105/247/102
f 105/247/102 108/235/102 102/246/102
o EngineersShack_polySurface4.001
v -0.452775 0.002995 1.273411
v -0.563270 -0.002995 1.272560
v -0.562207 -0.002995 1.134352
v -0.451712 0.002995 1.135202
v -0.517565 1.198179 1.272912
v -0.516502 1.198179 1.134704
v -0.626997 1.192189 1.133854
v -0.628060 1.192189 1.272062
vt 1.000000 0.000000
vt 1.000000 1.000000
vt 0.000000 1.000000
vt 0.000000 0.000000
vt 0.000000 0.000000
vt 1.000000 0.000000
vt 1.000000 1.000000
vt 0.000000 1.000000
vt 0.000000 0.000000
vt 1.000000 0.000000
vt 1.000000 1.000000
vt 0.000000 1.000000
vt 1.000000 0.000000
vt 0.000000 1.000000
vt 0.000000 0.000000
vt 1.000000 0.000000
vt 1.000000 1.000000
vt 0.000000 1.000000
vt 0.000000 0.000000
vt 1.000000 1.000000
vn 0.0541 -0.9985 0.0004
vn -0.0541 0.9985 -0.0004
vn 0.9985 0.0541 0.0077
vn 0.0077 0.0000 -1.0000
vn -0.9985 -0.0541 -0.0077
vn -0.0077 -0.0000 1.0000
usemtl None.002
FE3D_PART walls
s 1
f 109/248/103 110/249/103 111/250/103
f 111/250/103 112/251/103 109/248/103
f 113/252/104 114/253/104 115/254/104
f 115/254/104 116/255/104 113/252/104
f 109/256/105 112/257/105 114/258/105
f 114/258/105 113/259/105 109/256/105
f 112/251/106 111/260/106 115/254/106
f 115/254/106 114/261/106 112/251/106
f 111/262/107 110/263/107 116/264/107
f 116/264/107 115/265/107 111/262/107
f 110/266/108 109/248/108 113/267/108
f 113/267/108 116/255/108 110/266/108
o EngineersShack_polySurface10.001
v -0.896660 0.006953 -1.101016
v -1.035744 -0.000490 -1.101844
v -1.034406 -0.006165 -1.275717
v -0.895322 0.001278 -1.274890
v -0.977839 1.492021 -1.150111
v -0.976501 1.486346 -1.323985
v -1.115585 1.478903 -1.324812
v -1.116923 1.484578 -1.150939
vt 1.000000 0.000000
vt 1.000000 1.000000
vt 0.000000 1.000000
vt 0.000000 0.000000
vt 0.000000 0.000000
vt 1.000000 0.000000
vt 1.000000 1.000000
vt 0.000000 1.000000
vt 0.000000 0.000000
vt 1.000000 0.000000
vt 1.000000 1.000000
vt 0.000000 1.000000
vt 1.000000 0.000000
vt 0.000000 1.000000
vt 0.000000 0.000000
vt 1.000000 0.000000
vt 1.000000 1.000000
vt 0.000000 1.000000
vt 0.000000 0.000000
vt 1.000000 1.000000
vn 0.0532 -0.9980 0.0330
vn -0.0532 0.9980 -0.0330
vn 0.9985 0.0548 0.0059
vn 0.0077 -0.0326 -0.9994
vn -0.9985 -0.0548 -0.0059
vn -0.0077 0.0326 0.9994
usemtl None.002
FE3D_PART walls
s 1
f 117/268/109 118/269/109 119/270/109
f 119/270/109 120/271/109 117/268/109
f 121/272/110 122/273/110 123/274/110
f 123/274/110 124/275/110 121/272/110
f 117/276/111 120/277/111 122/278/111
f 122/278/111 121/279/111 117/276/111
f 120/271/112 119/280/112 123/274/112
f 123/274/112 122/281/112 120/271/112
f 119/282/113 118/283/113 124/284/113
f 124/284/113 123/285/113 119/282/113
f 118/286/114 117/268/114 121/287/114
f 121/287/114 124/275/114 118/286/114
