# Blender v2.79 (sub 0) OBJ File: ''
# www.blender.org
mtllib weaver.mtl
o EngineersShack_polySurface4.001
v -0.452775 0.002995 1.273411
v -0.563270 -0.002995 1.272560
v -0.562207 -0.002995 1.134352
v -0.451712 0.002995 1.135202
v -0.517565 1.198179 1.272912
v -0.516502 1.198179 1.134704
v -0.626997 1.192189 1.133854
v -0.628060 1.192189 1.272062
vt 1.000000 0.000000
vt 1.000000 1.000000
vt 0.000000 1.000000
vt 0.000000 0.000000
vt 0.000000 0.000000
vt 1.000000 0.000000
vt 1.000000 1.000000
vt 0.000000 1.000000
vt 0.000000 0.000000
vt 1.000000 0.000000
vt 1.000000 1.000000
vt 0.000000 1.000000
vt 1.000000 0.000000
vt 0.000000 1.000000
vt 0.000000 0.000000
vt 1.000000 0.000000
vt 1.000000 1.000000
vt 0.000000 1.000000
vt 0.000000 0.000000
vt 1.000000 1.000000
vn 0.0541 -0.9985 0.0004
vn -0.0541 0.9985 -0.0004
vn 0.9985 0.0541 0.0077
vn 0.0077 -0.0000 -1.0000
vn -0.9985 -0.0541 -0.0077
vn -0.0077 -0.0000 1.0000
FE3D_PART base
s 1
f 1/1/1 2/2/1 3/3/1
f 3/3/1 4/4/1 1/1/1
f 5/5/2 6/6/2 7/7/2
f 7/7/2 8/8/2 5/5/2
f 1/9/3 4/10/3 6/11/3
f 6/11/3 5/12/3 1/9/3
f 4/4/4 3/13/4 7/7/4
f 7/7/4 6/14/4 4/4/4
f 3/15/5 2/16/5 8/17/5
f 8/17/5 7/18/5 3/15/5
f 2/19/6 1/1/6 5/20/6
f 5/20/6 8/8/6 2/19/6
o EngineersShack_polySurface284.001
v -1.342662 1.271696 1.310377
v -1.332150 1.210467 -0.055900
v -0.021424 2.198631 -0.045814
v -0.031936 2.259860 1.320463
v -0.075802 2.270764 -0.046232
v -1.386528 1.282601 -0.056318
v -1.397041 1.343830 1.309959
v -0.086314 2.331993 1.320044
v -0.010911 2.259860 -1.412091
v -1.321637 1.271697 -1.422176
v -1.376015 1.343830 -1.422595
v -0.065289 2.331994 -1.412509
vt 1.180319 1.153841
vt 0.500000 1.153841
vt 0.500000 0.515622
vt 1.180319 0.515622
vt 0.500000 0.542100
vt 0.500000 1.180319
vt -0.180319 1.180320
vt -0.180319 0.542100
vt -0.180319 0.515622
vt 0.515622 1.092807
vt 1.153841 -0.106036
vt 1.180319 -0.018524
vt 0.542100 1.180320
vt -0.180320 1.180319
vt -0.180320 1.153841
vt -0.153841 -0.106036
vt 0.484378 1.092807
vt 0.457900 1.180320
vt -0.180320 -0.018524
vt -0.180319 0.515622
vt 1.180319 0.542100
vt 1.180320 1.180319
vt 1.180319 0.515622
vt 1.180319 1.180320
vn 0.6013 -0.7980 0.0404
vn 0.6020 -0.7985 0.0046
vn -0.6020 0.7985 -0.0046
vn -0.6013 0.7980 -0.0404
vn 0.7985 0.6020 0.0061
vn 0.7984 0.6018 -0.0208
vn 0.0077 -0.0000 -1.0000
vn -0.7985 -0.6020 -0.0061
vn -0.7980 -0.6018 -0.0331
vn -0.0077 -0.0000 1.0000
vn 0.6019 -0.7980 -0.0311
vn -0.6019 0.7980 0.0311
vn 0.7980 0.6018 0.0331
vn -0.7984 -0.6018 0.0208
FE3D_PART roof
s 1
f 9/21/7 10/22/8 11/23/8
f 11/23/8 12/24/7 9/21/7
f 13/25/9 14/26/9 15/27/10
f 15/27/10 16/28/10 13/25/9
f 11/23/11 13/25/11 16/28/12
f 16/28/12 12/29/12 11/23/11
f 17/30/13 18/31/13 19/32/13
f 19/32/13 20/33/13 17/30/13
f 10/22/14 14/26/14 19/34/15
f 19/34/15 18/35/15 10/22/14
f 9/36/16 12/37/16 16/38/16
f 16/38/16 15/39/16 9/36/16
f 18/35/17 17/40/17 11/23/8
f 11/23/8 10/22/8 18/35/17
f 20/41/18 19/42/18 14/26/9
f 14/26/9 13/25/9 20/41/18
f 17/43/19 20/41/19 13/25/11
f 13/25/11 11/23/11 17/43/19
f 9/21/20 15/44/20 14/26/14
f 14/26/14 10/22/14 9/21/20
o polySurface1_EngineersShack.001
v -0.129115 2.057531 1.646957
v -0.116604 1.982526 0.020975
v 0.088566 1.982526 0.022553
v 0.076054 2.057531 1.648536
v 0.088566 2.321283 0.022553
v -0.116604 2.321283 0.020975
v -0.129115 2.396287 1.646957
v 0.076054 2.396287 1.648536
v 0.101077 2.057532 -1.603429
v -0.104093 2.057532 -1.605008
v -0.104093 2.396288 -1.605008
v 0.101077 2.396288 -1.603429
vt 0.999500 0.999500
vt 0.500000 0.999499
vt 0.500000 0.000501
vt 0.999500 0.000502
vt 0.500000 0.000501
vt 0.500000 0.999499
vt 0.000500 0.999500
vt 0.000500 0.000502
vt 0.500000 0.818405
vt 0.000500 0.999500
vt 0.000500 0.181595
vt 0.000500 0.181595
vt 0.999498 0.181595
vt 0.999498 0.999500
vt 0.000500 0.999500
vt 0.500000 0.000500
vt 0.500000 0.818405
vt 0.000500 0.999500
vt 0.000500 0.181595
vt 0.000500 0.181595
vt 0.999498 0.181595
vt 0.999498 0.999500
vt 0.000500 0.999498
vt 0.000500 0.000500
vt 0.999500 0.000500
vt 0.999500 0.181595
vt 0.999500 0.999500
vt 0.999500 0.181595
vt 0.999500 0.999500
vn -0.0004 -0.9989 0.0461
vn -0.0000 -1.0000 -0.0000
vn 0.0000 1.0000 0.0000
vn 0.0004 0.9989 -0.0461
vn 1.0000 0.0000 0.0077
vn 0.0077 0.0000 -1.0000
vn -1.0000 0.0000 -0.0077
vn -0.0077 -0.0000 1.0000
vn 0.0004 -0.9989 -0.0461
vn -0.0004 0.9989 0.0461
FE3D_PART base
s 1
f 21/45/21 22/46/22 23/47/22
f 23/47/22 24/48/21 21/45/21
f 25/49/23 26/50/23 27/51/24
f 27/51/24 28/52/24 25/49/23
f 23/47/25 25/53/25 28/54/25
f 28/54/25 24/55/25 23/47/25
f 29/56/26 30/57/26 31/58/26
f 31/58/26 32/59/26 29/56/26
f 22/60/27 26/61/27 31/62/27
f 31/62/27 30/63/27 22/60/27
f 21/64/28 24/65/28 28/66/28
f 28/66/28 27/51/28 21/64/28
f 30/67/29 29/68/29 23/47/22
f 23/47/22 22/46/22 30/67/29
f 32/69/30 31/58/30 26/50/23
f 26/50/23 25/49/23 32/69/30
f 29/70/25 32/71/25 25/53/25
f 25/53/25 23/47/25 29/70/25
f 21/72/27 27/73/27 26/61/27
f 26/61/27 22/60/27 21/72/27
o EngineersShack_polySurface3.001
v 1.148475 -0.001045 1.303609
v 1.009205 0.000666 1.302541
v 1.010543 0.001044 1.128575
v 1.149814 -0.000667 1.129643
v 1.164736 1.486958 1.306972
v 1.166074 1.487336 1.133006
v 1.026803 1.489047 1.131938
v 1.025464 1.488669 1.305904
vt 1.000000 0.000000
vt 1.000000 1.000000
vt 0.000000 1.000000
vt 0.000000 0.000000
vt 0.000000 0.000000
vt 1.000000 0.000000
vt 1.000000 1.000000
vt 0.000000 1.000000
vt 0.000000 0.000000
vt 1.000000 0.000000
vt 1.000000 1.000000
vt 0.000000 1.000000
vt 1.000000 0.000000
vt 0.000000 1.000000
vt 0.000000 0.000000
vt 1.000000 0.000000
vt 1.000000 1.000000
vt 0.000000 1.000000
vt 0.000000 0.000000
vt 1.000000 1.000000
vn -0.0123 -0.9999 -0.0023
vn 0.0123 0.9999 0.0023
vn 0.9999 -0.0109 0.0077
vn 0.0077 0.0022 -1.0000
vn -0.9999 0.0109 -0.0077
vn -0.0077 -0.0022 1.0000
FE3D_PART base
s 1
f 33/74/31 34/75/31 35/76/31
f 35/76/31 36/77/31 33/74/31
f 37/78/32 38/79/32 39/80/32
f 39/80/32 40/81/32 37/78/32
f 33/82/33 36/83/33 38/84/33
f 38/84/33 37/85/33 33/82/33
f 36/77/34 35/86/34 39/80/34
f 39/80/34 38/87/34 36/77/34
f 35/88/35 34/89/35 40/90/35
f 40/90/35 39/91/35 35/88/35
f 34/92/36 33/74/36 37/93/36
f 37/93/36 40/81/36 34/92/36
o EngineersShack_polySurface2.001
v -1.083199 1.364853 1.286288
v -1.084910 1.532622 1.286578
v -1.083569 1.533078 1.112613
v -1.081858 1.365309 1.112323
v 1.034978 1.358370 1.302550
v 1.036319 1.358825 1.128585
v 1.034608 1.526595 1.128875
v 1.033267 1.526139 1.302840
vt 1.000000 0.000000
vt 1.000000 1.000000
vt 0.000000 1.000000
vt 0.000000 0.000000
vt 0.000000 0.000000
vt 1.000000 0.000000
vt 1.000000 1.000000
vt 0.000000 1.000000
vt 0.000000 0.000000
vt 1.000000 0.000000
vt 1.000000 1.000000
vt 0.000000 1.000000
vt 1.000000 0.000000
vt 0.000000 1.000000
vt 0.000000 0.000000
vt 1.000000 0.000000
vt 1.000000 1.000000
vt 0.000000 1.000000
vt 0.000000 0.000000
vt 1.000000 1.000000
vn -0.9999 -0.0102 -0.0077
vn 0.9999 0.0102 0.0077
vn -0.0030 -1.0000 -0.0026
vn 0.0077 0.0018 -1.0000
vn 0.0030 1.0000 0.0026
vn -0.0077 -0.0018 1.0000
FE3D_PART base
s 1
f 41/94/37 42/95/37 43/96/37
f 43/96/37 44/97/37 41/94/37
f 45/98/38 46/99/38 47/100/38
f 47/100/38 48/101/38 45/98/38
f 41/102/39 44/103/39 46/104/39
f 46/104/39 45/105/39 41/102/39
f 44/97/40 43/106/40 47/100/40
f 47/100/40 46/107/40 44/97/40
f 43/108/41 42/109/41 48/110/41
f 48/110/41 47/111/41 43/108/41
f 42/112/42 41/94/42 45/113/42
f 45/113/42 48/101/42 42/112/42
o EngineersShack_polySurface7.001
v -0.608718 1.097798 1.272211
v -0.615286 1.208262 1.272160
v -0.614223 1.208262 1.133952
v -0.607654 1.097798 1.134002
v -0.003040 1.129882 1.276871
v -0.001977 1.129882 1.138663
v -0.008545 1.240347 1.138612
v -0.009609 1.240347 1.276821
vt 1.000000 0.000000
vt 1.000000 1.000000
vt 0.000000 1.000000
vt 0.000000 0.000000
vt 0.000000 0.000000
vt 1.000000 0.000000
vt 1.000000 1.000000
vt 0.000000 1.000000
vt 0.000000 0.000000
vt 1.000000 0.000000
vt 1.000000 1.000000
vt 0.000000 1.000000
vt 1.000000 0.000000
vt 0.000000 1.000000
vt 0.000000 0.000000
vt 1.000000 0.000000
vt 1.000000 1.000000
vt 0.000000 1.000000
vt 0.000000 0.000000
vt 1.000000 1.000000
vn -0.9982 -0.0594 -0.0077
vn 0.9982 0.0594 0.0077
vn 0.0529 -0.9986 0.0004
vn 0.0077 0.0000 -1.0000
vn -0.0529 0.9986 -0.0004
vn -0.0077 -0.0000 1.0000
FE3D_PART base
s 1
f 49/114/43 50/115/43 51/116/43
f 51/116/43 52/117/43 49/114/43
f 53/118/44 54/119/44 55/120/44
f 55/120/44 56/121/44 53/118/44
f 49/122/45 52/123/45 54/124/45
f 54/124/45 53/125/45 49/122/45
f 52/117/46 51/126/46 55/120/46
f 55/120/46 54/127/46 52/117/46
f 51/128/47 50/129/47 56/130/47
f 56/130/47 55/131/47 51/128/47
f 50/132/48 49/114/48 53/133/48
f 53/133/48 56/121/48 50/132/48
o EngineersShack_polySurface13.001
v 0.003115 -0.003329 1.107076
v 0.551586 -0.002859 1.095950
v 0.552721 -0.005217 1.151780
v 0.004249 -0.005687 1.162907
v 0.003115 1.121492 1.154580
v 0.004249 1.119134 1.210411
v 0.574512 1.119623 1.198843
v 0.573376 1.121981 1.143012
vt 0.999497 0.960901
vt 0.999495 1.959334
vt 0.000500 1.959334
vt 0.000502 0.960901
vt 0.000503 0.960901
vt 0.999498 0.960901
vt 0.999500 1.999001
vt 0.000505 1.999001
vt 0.000503 0.000999
vt 0.999498 0.000999
vt 0.999498 1.999001
vt 0.000503 1.999001
vt 0.480451 0.000999
vt 0.979667 0.000999
vt 0.480451 1.999001
vt 0.000500 0.000999
vt 0.999495 0.000999
vt 0.999495 1.999001
vt 0.000500 1.999001
vt 0.020333 0.000999
vt 0.519549 0.000999
vt 0.519549 1.999001
vn -0.0000 -0.9991 -0.0422
vn 0.0000 0.9991 0.0422
vn -0.9998 -0.0009 0.0203
vn 0.0203 -0.0422 0.9989
vn 0.9996 -0.0185 -0.0211
vn -0.0203 0.0422 -0.9989
FE3D_PART doors
s 1
f 57/134/49 58/135/49 59/136/49
f 59/136/49 60/137/49 57/134/49
f 61/138/50 62/139/50 63/140/50
f 63/140/50 64/141/50 61/138/50
f 57/142/51 60/143/51 62/144/51
f 62/144/51 61/145/51 57/142/51
f 60/146/52 59/147/52 63/140/52
f 63/140/52 62/148/52 60/146/52
f 59/149/53 58/150/53 64/151/53
f 64/151/53 63/152/53 59/149/53
f 58/153/54 57/154/54 61/155/54
f 61/155/54 64/141/54 58/153/54
o EngineersShack_polySurface12.001
v -0.005912 -0.000000 1.167528
v -0.554096 -0.000000 1.188493
v -0.556232 -0.000000 1.132642
v -0.008048 -0.000000 1.111677
v -0.005912 1.125823 1.167529
v -0.008048 1.125823 1.111677
v -0.578011 1.125823 1.133475
v -0.575875 1.125823 1.189326
vt 0.999497 0.960901
vt 0.999495 1.959334
vt 0.000500 1.959334
vt 0.000502 0.960901
vt 0.000503 0.960901
vt 0.999498 0.960901
vt 0.999500 1.999001
vt 0.000505 1.999001
vt 0.000503 0.000999
vt 0.999498 0.000999
vt 0.999498 1.999001
vt 0.000503 1.999001
vt 0.480451 0.000999
vt 0.979667 0.000999
vt 0.480451 1.999001
vt 0.000500 0.000999
vt 0.999495 0.000999
vt 0.999495 1.999001
vt 0.000500 1.999001
vt 0.020333 0.000999
vt 0.519549 0.000999
vt 0.519549 1.999001
vn 0.0000 -1.0000 -0.0000
vn 0.0000 1.0000 -0.0000
vn 0.9993 0.0000 -0.0382
vn -0.0382 0.0000 -0.9993
vn -0.9991 -0.0194 0.0382
vn 0.0382 -0.0000 0.9993
FE3D_PART doors
s 1
f 65/156/55 66/157/55 67/158/55
f 67/158/55 68/159/55 65/156/55
f 69/160/56 70/161/56 71/162/56
f 71/162/56 72/163/56 69/160/56
f 65/164/57 68/165/57 70/166/57
f 70/166/57 69/167/57 65/164/57
f 68/168/58 67/169/58 71/162/58
f 71/162/58 70/170/58 68/168/58
f 67/171/59 66/172/59 72/173/59
f 72/173/59 71/174/59 67/171/59
f 66/175/60 65/176/60 69/177/60
f 69/177/60 72/163/60 66/175/60
o EngineersShack_polySurface283.001
v 0.010289 2.235142 1.320788
v -0.037632 2.216859 -0.045939
v 1.296813 1.260970 -0.035671
v 1.344734 1.279253 1.331055
v 1.349416 1.334409 -0.035266
v 0.014970 2.290298 -0.045534
v 0.062891 2.308581 1.321192
v 1.397337 1.352692 1.331460
v 1.365761 1.279254 -1.401498
v 0.031315 2.235143 -1.411766
v 0.083917 2.308582 -1.411361
v 1.418362 1.352693 -1.401094
vt 1.180319 0.495062
vt 0.500000 0.523515
vt 0.500000 -0.126254
vt 1.180320 -0.154706
vt 0.500000 -0.151867
vt 0.500000 0.497902
vt -0.180319 0.469449
vt -0.180320 -0.180319
vt 1.180320 -0.180319
vt -0.154706 -0.096868
vt 0.495062 1.062820
vt 0.469449 1.151916
vt -0.180320 -0.007772
vt 1.180319 0.469449
vt 1.180319 0.495062
vt 0.504938 1.062820
vt 1.154706 -0.096868
vt 1.180319 -0.007772
vt 0.530551 1.151916
vt -0.180319 0.495062
vt -0.180319 -0.154706
vt 1.180319 -0.180320
vt -0.180319 -0.180320
vt -0.180319 0.495062
vn -0.5822 -0.8124 0.0313
vn -0.5823 -0.8130 -0.0045
vn 0.5823 0.8130 0.0045
vn 0.5822 0.8124 -0.0313
vn 0.8129 -0.5823 0.0063
vn 0.8128 -0.5821 -0.0207
vn 0.0077 -0.0000 -1.0000
vn -0.8129 0.5823 -0.0063
vn -0.8124 0.5821 -0.0332
vn -0.0077 0.0000 1.0000
vn -0.5817 -0.8124 -0.0402
vn 0.5817 0.8124 0.0402
vn 0.8124 -0.5821 0.0332
vn -0.8128 0.5821 0.0207
FE3D_PART roof
s 1
f 73/178/61 74/179/62 75/180/62
f 75/180/62 76/181/61 73/178/61
f 77/182/63 78/183/63 79/184/64
f 79/184/64 80/185/64 77/182/63
f 75/180/65 77/182/65 80/186/66
f 80/186/66 76/181/66 75/180/65
f 81/187/67 82/188/67 83/189/67
f 83/189/67 84/190/67 81/187/67
f 74/179/68 78/183/68 83/191/69
f 83/191/69 82/192/69 74/179/68
f 73/193/70 76/194/70 80/195/70
f 80/195/70 79/196/70 73/193/70
f 82/197/71 81/198/71 75/180/62
f 75/180/62 74/179/62 82/197/71
f 84/199/72 83/191/72 78/183/63
f 78/183/63 77/182/63 84/199/72
f 81/198/73 84/200/73 77/182/65
f 77/182/65 75/180/65 81/198/73
f 73/201/74 79/184/74 78/183/68
f 78/183/68 74/179/68 73/201/74
o EngineersShack_polySurface10.001
v -0.896660 0.006953 -1.101016
v -1.035744 -0.000490 -1.101844
v -1.034406 -0.006165 -1.275717
v -0.895322 0.001278 -1.274890
v -0.977839 1.492021 -1.150111
v -0.976501 1.486346 -1.323985
v -1.115585 1.478903 -1.324812
v -1.116923 1.484578 -1.150939
vt 1.000000 0.000000
vt 1.000000 1.000000
vt 0.000000 1.000000
vt 0.000000 0.000000
vt 0.000000 0.000000
vt 1.000000 0.000000
vt 1.000000 1.000000
vt 0.000000 1.000000
vt 0.000000 0.000000
vt 1.000000 0.000000
vt 1.000000 1.000000
vt 0.000000 1.000000
vt 1.000000 0.000000
vt 0.000000 1.000000
vt 0.000000 0.000000
vt 1.000000 0.000000
vt 1.000000 1.000000
vt 0.000000 1.000000
vt 0.000000 0.000000
vt 1.000000 1.000000
vn 0.0532 -0.9980 0.0330
vn -0.0532 0.9980 -0.0330
vn 0.9985 0.0548 0.0059
vn 0.0077 -0.0326 -0.9994
vn -0.9985 -0.0548 -0.0059
vn -0.0077 0.0326 0.9994
FE3D_PART base
s 1
f 85/202/75 86/203/75 87/204/75
f 87/204/75 88/205/75 85/202/75
f 89/206/76 90/207/76 91/208/76
f 91/208/76 92/209/76 89/206/76
f 85/210/77 88/211/77 90/212/77
f 90/212/77 89/213/77 85/210/77
f 88/205/78 87/214/78 91/208/78
f 91/208/78 90/215/78 88/205/78
f 87/216/79 86/217/79 92/218/79
f 92/218/79 91/219/79 87/216/79
f 86/220/80 85/202/80 89/221/80
f 89/221/80 92/209/80 86/220/80
o EngineersShack_polySurface8.001
v 0.570061 -0.004877 1.233581
v 0.459465 -0.001152 1.232893
v 0.460528 0.004876 1.094816
v 0.571123 0.001151 1.095504
v 0.609988 1.190244 1.286061
v 0.611051 1.196272 1.147984
v 0.500456 1.199997 1.147296
v 0.499393 1.193969 1.285373
vt 1.000000 0.000000
vt 1.000000 1.000000
vt 0.000000 1.000000
vt 0.000000 0.000000
vt 0.000000 0.000000
vt 1.000000 0.000000
vt 1.000000 1.000000
vt 0.000000 1.000000
vt 0.000000 0.000000
vt 1.000000 0.000000
vt 1.000000 1.000000
vt 0.000000 1.000000
vt 1.000000 0.000000
vt 0.000000 1.000000
vt 0.000000 0.000000
vt 1.000000 0.000000
vt 1.000000 1.000000
vt 0.000000 1.000000
vt 0.000000 0.000000
vt 1.000000 1.000000
vn -0.0334 -0.9985 -0.0438
vn 0.0334 0.9985 0.0438
vn 0.9994 -0.0337 0.0062
vn 0.0077 0.0436 -0.9990
vn -0.9994 0.0337 -0.0062
vn -0.0077 -0.0436 0.9990
FE3D_PART base
s 1
f 93/222/81 94/223/81 95/224/81
f 95/224/81 96/225/81 93/222/81
f 97/226/82 98/227/82 99/228/82
f 99/228/82 100/229/82 97/226/82
f 93/230/83 96/231/83 98/232/83
f 98/232/83 97/233/83 93/230/83
f 96/225/84 95/234/84 99/228/84
f 99/228/84 98/235/84 96/225/84
f 95/236/85 94/237/85 100/238/85
f 100/238/85 99/239/85 95/236/85
f 94/240/86 93/222/86 97/241/86
f 97/241/86 100/229/86 94/240/86
o EngineersShack_polySurface9.001
v 1.166854 0.002376 -1.084989
v 1.027584 0.004086 -1.086117
v 1.028921 -0.001589 -1.259990
v 1.168192 -0.003299 -1.258862
v 1.183513 1.489591 -1.133402
v 1.184851 1.483916 -1.307275
v 1.045581 1.485626 -1.308402
v 1.044242 1.491301 -1.134529
vt 1.000000 0.000000
vt 1.000000 1.000000
vt 0.000000 1.000000
vt 0.000000 0.000000
vt 0.000000 0.000000
vt 1.000000 0.000000
vt 1.000000 1.000000
vt 0.000000 1.000000
vt 0.000000 0.000000
vt 1.000000 0.000000
vt 1.000000 1.000000
vt 0.000000 1.000000
vt 1.000000 0.000000
vt 0.000000 1.000000
vt 0.000000 0.000000
vt 1.000000 0.000000
vt 1.000000 1.000000
vt 0.000000 1.000000
vt 0.000000 0.000000
vt 1.000000 1.000000
vn -0.0125 -0.9994 0.0325
vn 0.0125 0.9994 -0.0325
vn 0.9999 -0.0109 0.0081
vn 0.0077 -0.0326 -0.9994
vn -0.9999 0.0109 -0.0080
vn -0.9999 0.0109 -0.0081
vn -0.0077 0.0326 0.9994
FE3D_PART base
s 1
f 101/242/87 102/243/87 103/244/87
f 103/244/87 104/245/87 101/242/87
f 105/246/88 106/247/88 107/248/88
f 107/248/88 108/249/88 105/246/88
f 101/250/89 104/251/89 106/252/89
f 106/252/89 105/253/89 101/250/89
f 104/245/90 103/254/90 107/248/90
f 107/248/90 106/255/90 104/245/90
f 103/256/91 102/257/91 108/258/92
f 108/258/92 107/259/92 103/256/91
f 102/260/93 101/242/93 105/261/93
f 105/261/93 108/249/93 102/260/93
o EngineersShack_polySurface5.001
v -0.915040 0.003534 1.287741
v -1.054122 -0.003913 1.286655
v -1.052783 -0.003535 1.112689
v -0.913701 0.003912 1.113776
v -0.996617 1.489389 1.290347
v -0.995278 1.489768 1.116381
v -1.134360 1.482321 1.115295
v -1.135699 1.481942 1.289260
vt 1.000000 0.000000
vt 1.000000 1.000000
vt 0.000000 1.000000
vt 0.000000 0.000000
vt 0.000000 0.000000
vt 1.000000 0.000000
vt 1.000000 1.000000
vt 0.000000 1.000000
vt 0.000000 0.000000
vt 1.000000 0.000000
vt 1.000000 1.000000
vt 0.000000 1.000000
vt 1.000000 0.000000
vt 0.000000 1.000000
vt 0.000000 0.000000
vt 1.000000 0.000000
vt 1.000000 1.000000
vt 0.000000 1.000000
vt 0.000000 0.000000
vt 1.000000 1.000000
vn 0.0535 -0.9986 -0.0018
vn -0.0535 0.9986 0.0018
vn 0.9985 0.0548 0.0078
vn 0.0077 0.0022 -1.0000
vn -0.9985 -0.0548 -0.0078
vn -0.0077 -0.0022 1.0000
FE3D_PART base
s 1
f 109/262/94 110/263/94 111/264/94
f 111/264/94 112/265/94 109/262/94
f 113/266/95 114/267/95 115/268/95
f 115/268/95 116/269/95 113/266/95
f 109/270/96 112/271/96 114/272/96
f 114/272/96 113/273/96 109/270/96
f 112/265/97 111/274/97 115/268/97
f 115/268/97 114/275/97 112/265/97
f 111/276/98 110/277/98 116/278/98
f 116/278/98 115/279/98 111/276/98
f 110/280/99 109/262/99 113/281/99
f 113/281/99 116/269/99 110/280/99
o EngineersShack_polySurface6.001
v -0.025074 1.134976 1.276702
v -0.020091 1.245523 1.276740
v -0.019027 1.245523 1.138532
v -0.024010 1.134976 1.138493
v 0.580648 1.103741 1.281363
v 0.581712 1.103741 1.143154
v 0.586695 1.214288 1.143192
v 0.585632 1.214288 1.281401
vt 1.000000 0.000000
vt 1.000000 1.000000
vt 0.000000 1.000000
vt 0.000000 0.000000
vt 0.000000 0.000000
vt 1.000000 0.000000
vt 1.000000 1.000000
vt 0.000000 1.000000
vt 0.000000 0.000000
vt 1.000000 0.000000
vt 1.000000 1.000000
vt 0.000000 1.000000
vt 1.000000 0.000000
vt 0.000000 1.000000
vt 0.000000 0.000000
vt 1.000000 0.000000
vt 1.000000 1.000000
vt 0.000000 1.000000
vt 0.000000 0.000000
vt 1.000000 1.000000
vn -0.9990 0.0450 -0.0077
vn 0.9990 -0.0450 0.0077
vn -0.0515 -0.9987 -0.0004
vn 0.0077 0.0000 -1.0000
vn 0.0515 0.9987 0.0004
vn -0.0077 -0.0000 1.0000
FE3D_PART base
s 1
f 117/282/100 118/283/100 119/284/100
f 119/284/100 120/285/100 117/282/100
f 121/286/101 122/287/101 123/288/101
f 123/288/101 124/289/101 121/286/101
f 117/290/102 120/291/102 122/292/102
f 122/292/102 121/293/102 117/290/102
f 120/285/103 119/294/103 123/288/103
f 123/288/103 122/295/103 120/285/103
f 119/296/104 118/297/104 124/298/104
f 124/298/104 123/299/104 119/296/104
f 118/300/105 117/282/105 121/301/105
f 121/301/105 124/289/105 118/300/105
o EngineersShack_polySurface11.001
v -0.010249 -0.000000 1.130845
v 0.006987 -0.000000 -1.109247
v 1.024979 -0.000000 -1.101414
v 0.569192 -0.000000 1.135303
v 1.007743 -0.000000 1.138678
v 1.134236 1.462298 -1.219781
v 0.007905 2.285097 -1.228448
v -0.011166 2.285097 1.250046
v 1.115165 1.462298 1.258712
v -1.011004 -0.000000 -1.117080
v -1.028240 -0.000000 1.123012
v -1.137497 1.462298 1.241379
v -1.118427 1.462298 -1.237114
v -0.566065 -0.000000 1.126568
v -0.593681 1.126635 1.199083
v -0.010716 1.163370 1.191532
v 0.589356 1.138909 1.212773
vt 2.296743 0.500001
vt -1.296743 0.500000
vt -1.296743 -1.296743
vt 2.296743 -0.522705
vt 2.296744 -1.296742
vt 2.487961 -1.487961
vt 2.487962 0.500000
vt -1.487962 0.500001
vt -1.487962 -1.487960
vt -1.296744 -1.487962
vt 2.296743 -1.487962
vt 2.487961 1.056344
vt -1.487962 1.056344
vt -1.296743 -1.487962
vt 0.500000 -1.487962
vt 0.500000 2.487962
vt -1.487961 1.056344
vt -1.296743 -1.487962
vt 2.296743 -1.487962
vt 2.487961 1.056344
vt -1.487962 1.056344
vt 2.296743 2.296744
vt -1.296743 2.296743
vt 2.296743 1.481008
vt 2.487962 2.487961
vt -1.487961 2.487962
vt 2.296743 -1.487962
vt 2.487961 1.056344
vt -1.296744 -1.487962
vt -0.481008 -1.487962
vt -0.528764 0.472312
vt -1.487962 1.056344
vt 0.499999 2.487962
vt 0.499999 0.536229
vt 2.487960 1.056344
vt 1.559344 0.493667
vt 2.296742 -1.487962
vt 1.522705 -1.487962
vn 0.0000 -1.0000 -0.0000
vn 0.5899 0.8075 0.0045
vn -0.0000 1.0000 0.0000
vn 0.9972 -0.0739 0.0077
vn -0.0092 -0.0596 -0.9982
vn 0.0077 -0.0521 -0.9986
vn 0.0077 -0.0660 -0.9978
vn -0.0486 -0.0770 -0.9958
vn -0.9972 -0.0739 -0.0077
vn -0.5899 0.8075 -0.0045
vn 0.0245 -0.0596 -0.9979
vn 0.0639 -0.0770 -0.9950
vn 0.0022 -0.0682 0.9977
vn -0.0077 -0.0644 0.9979
vn 0.0261 -0.0666 0.9974
vn 0.0343 -0.0700 0.9970
vn -0.0091 -0.0549 0.9984
vn -0.0139 -0.0546 0.9984
vn -0.0415 -0.0677 0.9968
vn -0.0361 -0.0781 0.9963
vn -0.0156 -0.0706 0.9974
vn -0.0077 -0.0677 0.9977
FE3D_PART base
s 1
f 125/302/106 126/303/106 127/304/106
f 128/305/106 125/302/106 127/304/106
f 129/306/106 128/305/106 127/304/106
f 130/307/107 131/308/108 132/309/108
f 132/309/108 133/310/107 130/307/107
f 129/311/109 127/312/109 130/313/109
f 130/313/109 133/314/109 129/311/109
f 127/315/110 126/316/111 131/317/112
f 131/317/112 130/318/113 127/315/110
f 134/319/114 135/320/114 136/321/114
f 136/321/114 137/322/114 134/319/114
f 135/323/106 134/324/106 126/303/106
f 138/325/106 135/323/106 126/303/106
f 125/302/106 138/325/106 126/303/106
f 137/326/115 136/327/115 132/309/108
f 132/309/108 131/308/108 137/326/115
f 134/328/116 137/329/117 131/317/112
f 131/317/112 126/316/111 134/328/116
f 135/330/118 138/331/119 139/332/120
f 136/333/121 135/330/118 139/332/120
f 132/334/122 136/333/121 139/332/120
f 140/335/123 132/334/122 139/332/120
f 133/336/124 132/334/122 140/335/123
f 133/336/124 140/335/123 141/337/125
f 129/338/126 133/336/124 141/337/125
f 128/339/127 129/338/126 141/337/125
